<?xml version="1.0" standalone="no"?>
<!DOCTYPE svg PUBLIC "-//W3C//DTD SVG 20010904//EN"
 "http://www.w3.org/TR/2001/REC-SVG-20010904/DTD/svg10.dtd">
<svg version="1.0" xmlns="http://www.w3.org/2000/svg"
 width="205.000000pt" height="191.000000pt" viewBox="0 0 205.000000 191.000000"
 preserveAspectRatio="xMidYMid meet">

<g transform="translate(0.000000,191.000000) scale(0.100000,-0.100000)"
fill="#000000" stroke="none">
<path d="M910 1825 c-159 -45 -273 -149 -329 -300 -62 -166 -21 -353 107 -487
159 -167 414 -194 607 -63 71 49 144 141 175 222 28 73 37 195 20 272 -38 172
-173 311 -347 356 -69 18 -171 18 -233 0z m241 -100 c104 -36 195 -128 235
-235 25 -67 23 -190 -5 -262 -29 -76 -107 -160 -185 -201 -57 -30 -68 -32
-166 -32 -93 0 -111 3 -162 27 -74 34 -146 107 -184 183 -26 54 -29 70 -29
160 0 87 3 107 26 155 45 96 125 170 219 203 59 21 194 22 251 2z"/>
<path d="M685 793 c-165 -34 -390 -162 -459 -262 -47 -68 -55 -104 -56 -258
l0 -143 855 0 855 0 0 153 c0 128 -3 159 -19 194 -55 119 -238 243 -448 304
l-63 18 -29 -25 -29 -24 -273 0 -273 0 -21 23 c-12 15 -28 22 -40 20z m-7
-123 c12 -19 23 -20 346 -20 326 0 335 1 341 20 7 23 13 24 49 10 27 -10 32
-29 20 -89 -6 -29 -9 -31 -49 -31 -50 0 -64 -13 -101 -94 -21 -47 -25 -68 -22
-113 6 -69 22 -83 95 -83 l53 0 0 50 c0 47 -2 50 -25 50 -28 0 -33 22 -13 65
10 23 16 25 79 25 66 0 69 -1 84 -30 22 -43 19 -60 -11 -60 -24 0 -25 -2 -22
-47 l3 -48 50 -3 c69 -4 87 11 93 81 3 45 -1 66 -22 113 -33 71 -52 94 -81 94
-18 0 -20 5 -17 35 2 19 8 35 13 35 19 0 130 -73 171 -112 63 -62 78 -100 78
-202 l0 -86 -760 0 -760 0 0 98 c0 93 2 101 29 139 16 22 49 56 72 75 42 34
179 115 179 105 0 -2 4 -28 10 -57 9 -49 8 -54 -15 -78 -56 -56 -52 -147 10
-201 45 -39 89 -47 143 -26 59 24 87 67 87 132 0 63 -24 100 -82 127 -45 21
-53 37 -53 104 0 46 8 53 28 22z m8 -237 c9 -35 -7 -58 -42 -58 -22 0 -31 6
-38 27 -12 35 6 58 45 58 23 0 30 -6 35 -27z"/>
</g>
</svg>
