<?xml version="1.0" standalone="no"?>
<!DOCTYPE svg PUBLIC "-//W3C//DTD SVG 20010904//EN"
 "http://www.w3.org/TR/2001/REC-SVG-20010904/DTD/svg10.dtd">
<svg version="1.0" xmlns="http://www.w3.org/2000/svg"
 width="245.000000pt" height="213.000000pt" viewBox="0 0 245.000000 213.000000"
 preserveAspectRatio="xMidYMid meet">

<g transform="translate(0.000000,213.000000) scale(0.100000,-0.100000)"
fill="#000000" stroke="none">
<path d="M1124 1976 c-304 -58 -560 -256 -684 -530 -53 -117 -72 -200 -77
-347 -9 -218 35 -380 147 -548 134 -200 335 -338 578 -398 89 -22 291 -22 389
0 334 74 598 320 699 652 25 82 28 105 28 250 1 174 -9 233 -65 366 -59 144
-185 302 -316 395 -79 58 -212 119 -310 145 -101 26 -291 34 -389 15z m255
-336 c24 -47 81 -192 81 -206 0 -2 -79 -4 -175 -4 -107 0 -175 4 -175 10 0 34
97 245 148 322 l26 39 33 -53 c19 -29 47 -78 62 -108z m-375 45 c-19 -41 -48
-115 -63 -163 l-29 -87 -131 -3 c-92 -2 -131 1 -131 9 0 33 130 175 213 231
53 36 152 88 169 88 4 0 -9 -34 -28 -75z m582 54 c68 -30 146 -81 201 -132 47
-42 133 -152 133 -168 0 -5 -60 -9 -132 -9 l-133 0 -33 103 c-18 56 -47 129
-63 161 -16 33 -29 61 -29 63 0 6 7 3 56 -18z m-711 -674 l0 -185 -156 0 -156
0 -7 33 c-15 73 -18 176 -7 246 6 41 14 78 17 82 3 5 74 9 157 9 l152 0 0
-185z m631 153 c4 -18 7 -87 7 -153 0 -66 -3 -135 -7 -152 l-8 -33 -213 0
c-155 0 -216 3 -221 12 -10 16 -11 295 -1 331 l7 27 214 0 214 0 8 -32z m507
-8 c11 -47 11 -257 0 -295 l-9 -30 -155 -3 -154 -2 0 185 0 185 155 -2 154 -3
9 -35z m-1069 -620 c18 -52 47 -125 64 -162 l30 -67 -26 10 c-59 23 -144 74
-204 124 -60 49 -158 165 -158 186 0 6 55 8 131 7 l131 -3 32 -95z m511 78
c-34 -112 -147 -333 -170 -333 -23 0 -149 244 -171 331 l-6 24 177 0 176 0 -6
-22z m465 16 c0 -3 -14 -26 -31 -51 -44 -64 -132 -149 -196 -190 -72 -46 -167
-88 -160 -71 3 7 24 54 45 103 22 50 48 118 57 153 l18 62 133 0 c74 0 134 -3
134 -6z"/>
</g>
</svg>
