<?xml version="1.0" standalone="no"?>
<!DOCTYPE svg PUBLIC "-//W3C//DTD SVG 20010904//EN"
 "http://www.w3.org/TR/2001/REC-SVG-20010904/DTD/svg10.dtd">
<svg version="1.0" xmlns="http://www.w3.org/2000/svg"
 width="205.000000pt" height="191.000000pt" viewBox="0 0 205.000000 191.000000"
 preserveAspectRatio="xMidYMid meet">

<g transform="translate(0.000000,191.000000) scale(0.100000,-0.100000)"
fill="#000000" stroke="none">
<path d="M499 1687 c-63 -42 -70 -71 -67 -257 3 -154 5 -169 30 -222 18 -38
53 -83 110 -140 107 -105 144 -177 159 -305 16 -146 34 -190 108 -266 216
-226 589 -84 609 231 4 68 7 74 31 83 67 26 121 110 121 189 0 114 -88 200
-204 200 -60 0 -94 -14 -139 -58 -99 -96 -74 -259 48 -322 l47 -25 -6 -62 c-7
-78 -33 -129 -90 -180 -163 -143 -415 -29 -416 189 0 120 58 239 164 332 40
35 75 77 97 118 l34 63 3 175 c3 161 1 178 -17 208 -32 50 -76 72 -146 72 -65
0 -85 -11 -85 -46 0 -35 26 -54 75 -54 70 0 75 -11 75 -164 0 -74 -5 -148 -12
-167 -22 -66 -68 -118 -135 -151 -55 -27 -70 -30 -121 -25 -68 6 -125 32 -168
79 -61 64 -68 89 -72 249 -4 167 0 179 69 179 55 0 79 15 79 48 0 42 -17 52
-86 52 -47 0 -69 -5 -95 -23z m950 -601 c57 -30 68 -110 22 -157 -63 -63 -171
-20 -171 68 0 82 75 127 149 89z"/>
</g>
</svg>
