<?xml version="1.0" standalone="no"?>
<!DOCTYPE svg PUBLIC "-//W3C//DTD SVG 20010904//EN"
 "http://www.w3.org/TR/2001/REC-SVG-20010904/DTD/svg10.dtd">
<svg version="1.0" xmlns="http://www.w3.org/2000/svg"
 width="854.000000pt" height="467.000000pt" viewBox="0 0 854.000000 467.000000"
 preserveAspectRatio="xMidYMid meet">

<g transform="translate(0.000000,467.000000) scale(0.100000,-0.100000)"
fill="#004a92" stroke="none">
<path d="M1992 4339 c-145 -72 -310 -305 -533 -753 -148 -296 -214 -449 -377
-865 -132 -339 -393 -1111 -453 -1341 -22 -85 -51 -193 -64 -240 -39 -141 -75
-340 -77 -428 -1 -97 8 -112 80 -133 70 -21 501 -18 650 4 134 19 162 31 183
77 56 120 65 134 100 152 124 63 795 75 1227 22 60 -7 68 -17 96 -115 32 -109
65 -119 425 -122 201 -2 244 1 293 16 31 9 60 22 64 29 13 21 4 94 -30 249
-133 595 -167 735 -231 954 -23 83 -57 200 -74 260 -50 180 -243 757 -316 945
-238 617 -466 1029 -663 1200 -59 51 -178 110 -223 110 -19 0 -53 -10 -77 -21z
m106 -1331 c2 -170 6 -248 13 -248 21 0 111 -50 155 -86 106 -87 140 -289 69
-410 -28 -47 -93 -104 -181 -156 l-54 -33 0 -133 0 -133 36 -21 c47 -27 98
-96 114 -152 11 -39 10 -53 -5 -98 -19 -61 -43 -90 -102 -125 l-43 -25 0 -171
0 -172 41 -29 c25 -17 39 -34 37 -45 -4 -16 -16 -18 -55 -5 -20 5 -23 3 -23
-20 0 -25 -2 -26 -65 -26 l-65 0 0 53 0 52 -68 40 c-86 51 -116 103 -106 180
3 28 15 66 24 86 20 39 87 103 126 121 23 11 24 14 24 117 l0 106 -46 25
c-131 69 -179 239 -109 385 17 36 43 64 89 100 l65 50 0 130 1 130 -50 -3
c-78 -6 -129 39 -83 73 9 7 13 17 9 24 -6 9 -11 9 -21 1 -17 -14 -35 -5 -35
17 0 9 9 36 21 60 16 32 35 52 73 73 28 17 59 30 69 30 16 0 17 18 17 238 0
131 3 242 7 246 4 4 32 6 63 4 l55 -3 3 -247z m768 -606 c64 -33 112 -90 165
-198 67 -136 88 -239 96 -460 10 -285 -18 -456 -98 -615 -76 -152 -165 -219
-290 -219 -184 0 -314 178 -364 499 -16 107 -22 367 -10 456 40 300 144 496
294 552 50 19 156 11 207 -15z m-1353 -46 c85 -26 149 -98 189 -216 31 -88 33
-324 4 -410 -21 -62 -67 -135 -104 -165 l-24 -21 41 -178 c23 -97 58 -239 76
-314 19 -75 35 -143 35 -149 0 -10 -27 -13 -100 -13 l-99 0 -10 38 c-5 20 -35
150 -66 287 -31 138 -59 256 -61 263 -2 8 -31 12 -99 12 l-95 0 0 -300 0 -300
-95 0 -95 0 0 740 0 740 228 0 c167 0 241 -4 275 -14z"/>
<path d="M1952 2668 c-18 -18 -14 -38 7 -38 27 0 37 19 19 36 -11 11 -16 12
-26 2z"/>
<path d="M2070 2415 l0 -167 52 30 c72 40 91 69 96 145 6 101 -23 143 -108
154 l-40 6 0 -168z"/>
<path d="M1961 2013 c-26 -32 -35 -65 -27 -96 7 -28 43 -77 57 -77 5 0 9 45 9
100 0 55 -4 100 -9 100 -5 0 -19 -12 -30 -27z"/>
<path d="M2071 1575 l0 -80 24 28 c14 15 25 39 25 52 0 13 -11 37 -25 52 l-24
28 0 -80z"/>
<path d="M1952 1308 c-23 -22 -44 -53 -47 -68 -8 -37 15 -87 59 -129 l36 -35
0 137 c0 75 -2 137 -3 137 -2 0 -22 -19 -45 -42z"/>
<path d="M2663 2191 c-94 -58 -141 -271 -130 -591 6 -182 24 -283 62 -365 85
-178 260 -138 325 73 41 131 49 492 15 663 -20 98 -67 194 -107 219 -44 26
-122 27 -165 1z"/>
<path d="M1170 1931 l0 -231 125 0 c143 0 179 10 217 61 36 48 48 92 48 169 0
85 -22 148 -66 191 l-35 34 -145 3 -144 3 0 -230z"/>
<path d="M5330 2910 c-113 -4 -227 -10 -255 -15 -218 -32 -654 -113 -760 -141
-179 -48 -434 -133 -467 -155 -33 -24 -68 -94 -68 -137 0 -72 58 -150 139
-188 l43 -20 -40 -27 c-93 -61 -147 -142 -162 -242 -5 -39 -13 -254 -16 -480
-9 -532 5 -642 96 -768 49 -69 109 -100 201 -105 65 -4 85 -1 123 18 149 72
201 281 213 860 8 420 -12 533 -118 654 -20 23 -48 48 -63 55 -14 8 -26 17
-26 20 0 3 118 2 262 -2 145 -4 314 -5 376 -2 l113 5 -54 -53 c-110 -107 -115
-137 -129 -672 -11 -435 -4 -597 27 -671 59 -141 192 -211 328 -173 50 14 115
73 139 127 35 78 78 342 93 568 11 178 12 238 0 385 -21 274 -48 373 -123 452
l-36 37 229 0 c127 0 282 3 345 6 l115 6 -47 -48 c-60 -63 -123 -172 -147
-254 -35 -117 -62 -775 -42 -1007 11 -125 26 -165 88 -226 115 -116 245 -113
369 8 70 69 86 107 104 257 14 115 14 901 1 996 -14 93 -57 188 -105 230 -20
17 -41 32 -46 32 -6 0 -10 5 -10 10 0 6 10 10 23 10 64 0 116 118 124 281 8
145 -13 235 -70 296 -24 26 -54 47 -76 53 -40 10 -349 31 -432 28 -30 -1 -146
-4 -259 -8z"/>
<path d="M7101 2895 c-40 -18 -170 -142 -255 -245 -78 -93 -127 -177 -149
-255 -27 -96 -55 -324 -68 -545 -15 -258 -5 -793 17 -896 8 -38 19 -98 25
-134 21 -134 62 -183 171 -202 109 -19 314 22 360 72 l28 30 52 -29 c29 -16
80 -35 113 -42 73 -15 312 -15 358 0 78 26 114 112 101 238 -7 66 -29 113 -67
137 -33 22 -232 32 -321 17 -83 -15 -114 -30 -174 -84 l-45 -42 6 130 c4 72 7
239 7 373 l0 244 25 -30 c13 -16 48 -40 77 -53 46 -20 70 -23 178 -23 202 -1
239 31 248 214 5 117 -8 151 -65 171 -75 26 -309 5 -378 -34 -22 -12 -50 -38
-62 -56 l-23 -34 0 354 1 354 24 -46 c30 -58 96 -116 149 -130 64 -18 182 -16
290 5 132 25 158 48 186 161 42 173 44 323 4 352 -28 20 -122 35 -177 28 -89
-12 -231 -52 -288 -80 -68 -34 -135 -89 -160 -129 l-19 -31 0 108 c0 94 -2
109 -20 127 -24 24 -98 27 -149 5z"/>
</g>
</svg>
